<?xml version="1.0" encoding="UTF-8"?>
<svg version="1.1" viewBox="0 0 1988 2008" xmlns="http://www.w3.org/2000/svg">
<path transform="translate(320,218)" d="m0 0h691l6 1 1 8 5 84 6 85 4 53v15l-9 3-10 2h-6l-3-9-10-35-8-23-8-17-8-14-9-14-10-13-11-12-11-11-14-11-13-9-17-10-29-13-24-8-18-4-22-4-22-3-49-3h-36l-94 2h-33v419h20l61-1 52-2 42-3 29-5 26-6 21-7 22-12 14-10 11-9 9-11 9-14 8-15 8-21 4-12 2-2h19l2 6v28l-3 243-1 40-23-1-3-6-8-30-10-25-9-16-8-10-13-13-10-8-17-11-11-5-28-10-38-8-45-4-19-1-94-2h-19v260l1 65 2 26 4 24 5 16 5 12 9 15 9 10 11 10 13 8 20 9 30 11 5 4 1 3v19l-3 3h-349l-3-2v-24l10-5 25-9 28-13 12-11 4-2 1-3 5-5 8-13 6-12 5-15 3-15 3-22 2-45v-156l-1-188-1-294-3-25-4-20-6-17-9-17-9-10-4-5-16-12-16-8-20-8-21-8-2-2v-24z" fill="currentColor"/>
<path transform="translate(1137,562)" d="m0 0h56l4 2 8 19 16 42 11 30 12 31 11 30 13 33 16 43 15 39 11 30 14 37 18 47 11 29 12 32 33 87 11 30 16 41 14 38 10 26 14 37 17 41 11 25 14 27 10 15 12 14 9 8 15 9 16 8 20 9 3 4v18l-3 3h-304l-4-2-1-2v-19l5-3 20-8 14-8 9-7 4-2 2-4 8-10 7-16 4-17v-37l-4-22-6-23-15-43-11-30-9-24-21-57-10-27-8-21-2-4-219-2h-46l-3 10-22 73-8 29-11 42-8 35-4 25-2 28v30l3 24 5 15 6 11 8 10 5 6 15 10 12 6 29 10 1 1v22l-2 1h-287l-7-2-2-5v-14l4-4 21-8 13-7 17-12 12-12 9-11 11-15 11-18 12-20 10-20 10-19 10-21 11-25 14-32 15-37 8-20 11-28 14-36 11-30 13-34 15-41 11-28 6-18 14-36 11-30 15-40 11-30 7-18 6-17 11-29 16-44 11-29 19-50 12-33 5-10zm-14 124-2 2-5 17-12 36-17 53-15 45-14 43-15 46-9 29-13 38-7 25v3l3 1h230l3-1-3-14-11-30-11-29-11-30-16-43-12-32-13-34-11-30-11-29-14-38-9-22-3-6z" fill="currentColor"/>
<path transform="translate(906,892)" d="m0 0 9 1 5 3 1 7-3 1-8-5-8-1-6 3-2 3v9l5 10 14 18 9 11h4l4-8-1-6-3-3v-2l-3-1 1-2h24v3l-5 6-6 10-7 10 2 4 8 5 5 1 9-3-1 4-8 5h-11l-10-5-4-1-10 5-3 1h-19l-8-4-6-8-2-5v-9l4-9 5-7 7-6-3-9v-9l4-8 7-6zm-15 40-6 4-4 8-1 8 3 10 5 7 8 4 9-1 9-5 3-4-9-12-11-13-4-6z" fill="currentColor"/>
<path transform="translate(1315,1442)" d="m0 0h230l35 1 4 1v2h-298l1-2z" fill="currentColor" opacity="0.8"/>
<path transform="translate(758,1442)" d="m0 0h229l25 1 12 2v1h-282l-1-2 7-1z" fill="currentColor" opacity="0.8"/>
<path transform="translate(979,1541)" d="m0 0 8 1 6 5 2 9-3 7-6 7-3 2 1 4 3 3v2h2l9 11 1 3 5 1 5-13 1-6-11-2v-2h20v2l-4 4-6 16-2 3 1 6 6 3 10 2v2l-3 1h-8l-9-6-4 1-7 4-5 1h-14l-6-4-5-7-1-3v-10l4-7 8-8-2-5-5-10 1-9 5-6zm0 4-7 6-2 4 1 6 5 7 4 1 6-4 5-6v-7l-5-6zm-3 31-7 6-3 6v10l4 7 5 3h16l8-4 1-4-12-14-7-8-2-2z" fill="currentColor" opacity="0.8"/>
<path transform="translate(1225,1675)" d="m0 0h19l8 4 6 7 5 13 1 11-3 14-6 10-8 7-7 2h-14l-10-3-6-5-5-9-2-5-1-7v-10l4-13 7-9 9-6zm4 3-10 4-8 9-3 7-1 7v8l2 10 4 7 4 5 10 4h13l8-4 7-9 4-12v-11l-4-13-7-8-8-4z" fill="currentColor" opacity="0.8"/>
<path transform="translate(821,1675)" d="m0 0 5 1 14 20 14 19 12 16 1-55h4v65l-2 1-5-5-10-14-13-18-9-12-3-3v-2l-4-1v54h-4l-1-7v-58z" fill="currentColor" opacity="0.8"/>
<path transform="translate(653,1675)" d="m0 0h21l8 4 6 8 4 10v19l-3 11-6 8-6 5-9 3h-13l-9-3-7-6-6-12-1-4v-16l4-11 6-8 7-6zm6 3-8 2-8 7-6 12-1 3v15l3 9 7 9 9 4h15l6-3 5-4 5-9 2-7v-17l-4-10-8-8-10-3z" fill="currentColor" opacity="0.8"/>
<path transform="translate(1301,1675)" d="m0 0 4 2 16 21 12 17 14 19v-58l4-1 1 4-1 63-5-2-8-10-12-17-13-18-7-9-2-1v56l-3 1-1-2v-63z" fill="currentColor" opacity="0.8"/>
<path transform="translate(910,1675)" d="m0 0h25l10 2 9 5 7 8 4 11v14l-4 11-6 8-8 6-8 2h-28l-1-5zm7 3-2 1-1 4v53l1 3h24l8-3 5-4 5-7 3-9v-16l-4-10-7-7-10-4-10-1z" fill="currentColor" opacity="0.8"/>
<path transform="translate(1509,1543)" d="m0 0 4 2 8 10 12 17 21 28 1-56h3v67l-4-2-10-15-13-18-10-14-7-8-1 56h-5v-65z" fill="currentColor" opacity="0.8"/>
<path transform="translate(1256,1543)" d="m0 0h16l7 3 5 6 1 4-5-2-6-5-6-2h-10l-8 3-7 8-4 9-1 4v16l4 10 7 8 5 2h17l6-4 5-8 2-11-13-1-2-1v-2h18l1 1v30h-3l-2-8-7 6-3 2-5 1h-13l-8-3-5-4-6-9-3-8-1-12 2-10 6-12 10-9z" fill="currentColor" opacity="0.8"/>
<path transform="translate(728,1676)" d="m0 0h6l1 42 2 11 3 6 7 3h14l8-4 4-7 2-15v-36h5v39l-2 14-4 6-7 6-9 2-15-1-8-5-5-12-1-6-1-17z" fill="currentColor" opacity="0.8"/>
<path transform="translate(1145,1544)" d="m0 0 4 1 11 14 26 36 5 7h1v-54l1-4h3v46l-1 21-4-1-11-15-8-12-11-15-11-14-1 1v55l-4 1z" fill="currentColor" opacity="0.8"/>
<path transform="translate(501,1543)" d="m0 0 4 1 8 12 14 18 14 20 6 8 1-35 1-2h2l1 8v35l-1 3-4-1-6-8-11-16-24-32-1 57h-4z" fill="currentColor" opacity="0.8"/>
<path transform="translate(339,1544)" d="m0 0h28l6 3 5 6 1 8-2 8-5 5-5 3-11 3 10 14 8 11 5 3h5l1 3-6 1-7-3-9-11-10-16v-2h-9v31l-4-1zm5 3-1 1v27l3 1h13l10-3 4-4 2-10-3-8-4-3-3-1z" fill="currentColor" opacity="0.8"/>
<path transform="translate(899,1543)" d="m0 0 4 1 10 25 14 37 1 5h-4l-7-18v-2h-34l-3 10-5 10-4 1 3-9 7-17 10-25zm1 7-4 8-10 26v3h30l-9-24-5-12z" fill="currentColor" opacity="0.8"/>
<path transform="translate(613,1543)" d="m0 0h17l7 3 4 5 1 5-5-2-6-5-12-2-9 2-8 7-4 8-2 9v12l3 10 4 6 5 4 5 2h15l6-4 5-5h3l-2 5-5 6-7 3h-17l-10-5-6-7-4-10-1-6v-11l4-13 6-9 9-7z" fill="currentColor" opacity="0.8"/>
<path transform="translate(1080,1543)" d="m0 0 4 1 16 42 8 20 1 6-4-2-6-14-2-4-31-1-2 1-7 18-4 2 1-7 11-26 11-28zm0 7-8 20-6 17 26 1 4-2-5-15-8-19z" fill="currentColor" opacity="0.8"/>
<path transform="translate(1025,1674)" d="m0 0 4 3 11 28 9 24 4 10-1 4-4-3-6-16-1-1h-32l-8 18-3 1 1-7 6-15 7-17 8-20 4-8zm0 8-3 4-6 17-5 14v2h29l-1-6-7-19-5-11z" fill="currentColor" opacity="0.8"/>
<path transform="translate(439,1542)" d="m0 0 3 3 10 24 10 27 4 12v3l-3-1-7-18-4-1h-29l-5 12-3 8-5 1 1-5 9-22 11-27 6-14zm-1 8-6 14-8 21v2l5 1h25l-3-11-8-20-3-6z" fill="currentColor" opacity="0.8"/>
<path transform="translate(731,1543)" d="m0 0h13l6 3 4 5 2 7-4-2-4-6-7-3h-9l-6 3-3 5-1 9 3 6 6 4 19 6 7 8 1 9-4 8-7 6-4 1h-14l-7-3-5-5-3-6v-4l4 1 6 10 5 2h16l5-4 3-7-1-7-5-5-17-5-8-5-4-6v-12l3-6 5-5z" fill="currentColor" opacity="0.8"/>
<path transform="translate(1621,1543)" d="m0 0 4 1 8 22 8 21 8 20v5l-4-4-7-16-4-1h-29l-7 19-4 1 2-9 12-30 9-21zm1 7-4 6-10 26-1 5 2 1h24l3-1-3-12-8-22z" fill="currentColor" opacity="0.8"/>
<path transform="translate(814,1543)" d="m0 0h16l7 3 5 6 1 4-4-2-5-4-5-2h-16l-6 4-6 7-4 9-1 4v13l4 11 5 7 5 3 4 1h15l8-5 2-2h3l-2 4-8 7-3 1h-17l-8-4-5-4-6-12-2-8v-11l2-9 5-9 7-8z" fill="currentColor" opacity="0.8"/>
<path transform="translate(566,1675)" d="m0 0h31l2 1v2l-29 1 1 28h27l3 3-5 1h-26v29h-4z" fill="currentColor" opacity="0.8"/>
<path transform="translate(1324,1544)" d="m0 0h36v3h-32v29l17 1v2h-17l-1 29h34l1 3-38 1z" fill="currentColor" opacity="0.8"/>
<path transform="translate(274,1544)" d="m0 0h34l1 2-4 1h-27v29h29l2 2-1 1h-30v31l-4-1z" fill="currentColor" opacity="0.9"/>
<path transform="translate(1081,1675)" d="m0 0h44l1 3-21 1v62h-4l-1-62-19-1z" fill="currentColor" opacity="0.8"/>
<path transform="translate(1397,1545)" d="m0 0h5v63l31 1v2h-35l-1-5z" fill="currentColor" opacity="0.8"/>
<path transform="translate(906,892)" d="m0 0 9 1 5 3 1 7-3 1-8-5-8-1-6 3-3 5-1 4h-3l2 12 4 10-4 1-5 3-4 6-2-2 1-7 7-6-3-9v-9l4-8 7-6z" fill="currentColor" opacity="0.8"/>
<path transform="translate(1469,1544)" d="m0 0h1v66h-5l-1-1v-64z" fill="currentColor" opacity="0.8"/>
<path transform="translate(1160,1675)" d="m0 0h5v66l-4 1-1-1z" fill="currentColor" opacity="0.8"/>
<path transform="translate(879,936)" d="m0 0 2 4 1 4-1 8 3 10 4 6 11 6v1h-11l-8-4-6-8-2-5v-9l4-9z" fill="currentColor"/>
<path transform="translate(676,1544)" d="m0 0h4v66h-4l-1-7v-58z" fill="currentColor" opacity="0.8"/>
<path transform="translate(1250,1020)" d="m0 0 3 2v4l-2 1h-28l-38-1-10-1v-1l75-1z" fill="currentColor" opacity="0.8"/>
<path transform="translate(1014,1016)" d="m0 0 1 4-1 3 68 1v1l-58 2h-10l-2-1 1-7z" fill="currentColor" opacity="0.8"/>
<path transform="translate(911,954)" d="m0 0 5 2 1 6h2v2l3 1 1 3-13 6-3 1h-8l-2-2 10-3 8-5 1-2-5-7z" fill="currentColor" opacity="0.8"/>
<path transform="translate(276,1566)" d="m0 0h1l1 10h29l2 2-1 1h-30l-2-1z" fill="currentColor" opacity="0.8"/>
<path transform="translate(1091,678)" d="m0 0 1 3-4 11-3 9-5 13-7 19-2 1 3-11 16-43z" fill="currentColor" opacity="0.8"/>
<path transform="translate(1122,682)" d="m0 0 5 1 4 9 1 9-2-2-5-11v-2l-3 2-2 6h-1v-7z" fill="currentColor" opacity="0.8"/>
<path transform="translate(278,1544)" d="m0 0h30l1 2-4 1h-26z" fill="currentColor" opacity="0.8"/>
<path transform="translate(939,1301)" d="m0 0 2 1v25h-2l-1-6v-13z" fill="currentColor" opacity="0.8"/>
<path transform="translate(953,966)" d="m0 0 1 3-7 5-6-1-5-5 9 1z" fill="currentColor" opacity="0.85"/>
<path transform="translate(1253,1057)" d="m0 0h11l5 3-1 3-3-3-12-1z" fill="currentColor" opacity="0.8"/>
</svg>
